<svg xmlns="http://www.w3.org/2000/svg" width="1080" height="720" viewBox="0 0 1080 720" role="img" aria-label="BLCaptain Meta Skill 工作台截图">
  <rect width="1080" height="720" rx="42" fill="#f8fafc"/>
  <rect x="32" y="32" width="1016" height="656" rx="28" fill="#ffffff" stroke="#cbd5e1" stroke-width="3"/>
  <rect x="32" y="32" width="1016" height="86" rx="28" fill="#0f172a"/>
  <circle cx="86" cy="75" r="13" fill="#ef4444"/>
  <circle cx="126" cy="75" r="13" fill="#f59e0b"/>
  <circle cx="166" cy="75" r="13" fill="#22c55e"/>
  <text x="220" y="83" font-family="'Hiragino Sans GB', 'Heiti SC', Arial, sans-serif" font-size="30" fill="#f8fafc">InsightFlow Action Console</text>
  <rect x="72" y="158" width="284" height="190" rx="24" fill="#eff6ff"/>
  <text x="104" y="215" font-family="'Hiragino Sans GB', 'Heiti SC', Arial, sans-serif" font-size="34" font-weight="700" fill="#1e3a8a">Actions</text>
  <text x="104" y="272" font-family="'Hiragino Sans GB', 'Heiti SC', Arial, sans-serif" font-size="64" font-weight="800" fill="#2563eb">18</text>
  <text x="104" y="318" font-family="'Hiragino Sans GB', 'Heiti SC', Arial, sans-serif" font-size="24" fill="#334155">负责人 截止时间 状态</text>
  <rect x="398" y="158" width="284" height="190" rx="24" fill="#ecfdf5"/>
  <text x="430" y="215" font-family="'Hiragino Sans GB', 'Heiti SC', Arial, sans-serif" font-size="34" font-weight="700" fill="#14532d">Decisions</text>
  <text x="430" y="272" font-family="'Hiragino Sans GB', 'Heiti SC', Arial, sans-serif" font-size="64" font-weight="800" fill="#16a34a">7</text>
  <text x="430" y="318" font-family="'Hiragino Sans GB', 'Heiti SC', Arial, sans-serif" font-size="24" fill="#334155">已确认会议结论</text>
  <rect x="724" y="158" width="284" height="190" rx="24" fill="#fff7ed"/>
  <text x="756" y="215" font-family="'Hiragino Sans GB', 'Heiti SC', Arial, sans-serif" font-size="34" font-weight="700" fill="#7c2d12">Risks</text>
  <text x="756" y="272" font-family="'Hiragino Sans GB', 'Heiti SC', Arial, sans-serif" font-size="64" font-weight="800" fill="#ea580c">3</text>
  <text x="756" y="318" font-family="'Hiragino Sans GB', 'Heiti SC', Arial, sans-serif" font-size="24" fill="#334155">待确认阻塞点</text>
  <rect x="72" y="392" width="936" height="232" rx="24" fill="#f1f5f9"/>
  <text x="112" y="452" font-family="'Hiragino Sans GB', 'Heiti SC', Arial, sans-serif" font-size="30" font-weight="700" fill="#0f172a">Next Steps</text>
  <text x="112" y="512" font-family="'Hiragino Sans GB', 'Heiti SC', Arial, sans-serif" font-size="28" fill="#334155">1. 客户访谈整理    2. 需求评审复盘    3. 周会任务分派</text>
  <text x="112" y="564" font-family="'Hiragino Sans GB', 'Heiti SC', Arial, sans-serif" font-size="28" fill="#334155">4. 风险提醒    5. 责任人同步    6. 截止时间追踪</text>
</svg>
